<svg width="91" height="25" viewBox="0 0 91 25" fill="none" xmlns="http://www.w3.org/2000/svg">
<path d="M36.5483 18H34.2812L37.2259 9.27273H40.0341L42.9787 18H40.7116L38.6619 11.4716H38.5938L36.5483 18ZM36.2457 14.5653H40.9844V16.1676H36.2457V14.5653ZM45.9557 9.27273V18H43.8463V9.27273H45.9557ZM49.4285 10.9858V9.27273H56.805V10.9858H54.1586V18H52.0791V10.9858H49.4285ZM65.6019 13.6364C65.6019 14.5966 65.4173 15.4105 65.0479 16.0781C64.6786 16.7457 64.1786 17.2528 63.5479 17.5994C62.9201 17.946 62.2156 18.1193 61.4343 18.1193C60.6502 18.1193 59.9442 17.9446 59.3164 17.5952C58.6886 17.2457 58.19 16.7386 57.8207 16.0739C57.4542 15.4062 57.2709 14.5937 57.2709 13.6364C57.2709 12.6761 57.4542 11.8622 57.8207 11.1946C58.19 10.527 58.6886 10.0199 59.3164 9.6733C59.9442 9.3267 60.6502 9.15341 61.4343 9.15341C62.2156 9.15341 62.9201 9.3267 63.5479 9.6733C64.1786 10.0199 64.6786 10.527 65.0479 11.1946C65.4173 11.8622 65.6019 12.6761 65.6019 13.6364ZM63.4457 13.6364C63.4457 13.0682 63.3647 12.5881 63.2028 12.196C63.0437 11.804 62.8136 11.5071 62.5124 11.3054C62.2141 11.1037 61.8548 11.0028 61.4343 11.0028C61.0167 11.0028 60.6573 11.1037 60.3562 11.3054C60.055 11.5071 59.8235 11.804 59.6616 12.196C59.5025 12.5881 59.4229 13.0682 59.4229 13.6364C59.4229 14.2045 59.5025 14.6847 59.6616 15.0767C59.8235 15.4687 60.055 15.7656 60.3562 15.9673C60.6573 16.169 61.0167 16.2699 61.4343 16.2699C61.8548 16.2699 62.2141 16.169 62.5124 15.9673C62.8136 15.7656 63.0437 15.4687 63.2028 15.0767C63.3647 14.6847 63.4457 14.2045 63.4457 13.6364ZM74.9987 13.6364C74.9987 14.5966 74.814 15.4105 74.4447 16.0781C74.0754 16.7457 73.5754 17.2528 72.9447 17.5994C72.3168 17.946 71.6123 18.1193 70.8311 18.1193C70.047 18.1193 69.341 17.9446 68.7132 17.5952C68.0853 17.2457 67.5867 16.7386 67.2174 16.0739C66.8509 15.4062 66.6677 14.5937 66.6677 13.6364C66.6677 12.6761 66.8509 11.8622 67.2174 11.1946C67.5867 10.527 68.0853 10.0199 68.7132 9.6733C69.341 9.3267 70.047 9.15341 70.8311 9.15341C71.6123 9.15341 72.3168 9.3267 72.9447 9.6733C73.5754 10.0199 74.0754 10.527 74.4447 11.1946C74.814 11.8622 74.9987 12.6761 74.9987 13.6364ZM72.8424 13.6364C72.8424 13.0682 72.7614 12.5881 72.5995 12.196C72.4404 11.804 72.2103 11.5071 71.9092 11.3054C71.6109 11.1037 71.2515 11.0028 70.8311 11.0028C70.4134 11.0028 70.0541 11.1037 69.7529 11.3054C69.4518 11.5071 69.2203 11.804 69.0583 12.196C68.8992 12.5881 68.8197 13.0682 68.8197 13.6364C68.8197 14.2045 68.8992 14.6847 69.0583 15.0767C69.2203 15.4687 69.4518 15.7656 69.7529 15.9673C70.0541 16.169 70.4134 16.2699 70.8311 16.2699C71.2515 16.2699 71.6109 16.169 71.9092 15.9673C72.2103 15.7656 72.4404 15.4687 72.5995 15.0767C72.7614 14.6847 72.8424 14.2045 72.8424 13.6364ZM76.1582 18V9.27273H78.2676V16.2869H81.8983V18H76.1582ZM87.6356 11.8892C87.6071 11.5767 87.4807 11.3338 87.2563 11.1605C87.0347 10.9844 86.7179 10.8963 86.306 10.8963C86.0333 10.8963 85.806 10.9318 85.6242 11.0028C85.4424 11.0739 85.306 11.1719 85.2151 11.2969C85.1242 11.419 85.0773 11.5597 85.0745 11.7188C85.0688 11.8494 85.0944 11.9645 85.1512 12.0639C85.2108 12.1634 85.2961 12.2514 85.4069 12.3281C85.5205 12.402 85.6569 12.4673 85.816 12.5241C85.975 12.581 86.154 12.6307 86.3529 12.6733L87.1029 12.8438C87.5347 12.9375 87.9154 13.0625 88.2449 13.2188C88.5773 13.375 88.8557 13.5611 89.0802 13.777C89.3074 13.9929 89.4793 14.2415 89.5958 14.5227C89.7123 14.804 89.7719 15.1193 89.7748 15.4688C89.7719 16.0199 89.6327 16.4929 89.3571 16.8878C89.0816 17.2827 88.6853 17.5852 88.1682 17.7955C87.654 18.0057 87.0333 18.1108 86.306 18.1108C85.5759 18.1108 84.9395 18.0014 84.3969 17.7827C83.8543 17.5639 83.4324 17.2315 83.1313 16.7855C82.8302 16.3395 82.6753 15.7756 82.6668 15.0938H84.6867C84.7037 15.375 84.779 15.6094 84.9125 15.7969C85.0461 15.9844 85.2293 16.1264 85.4623 16.223C85.6981 16.3196 85.9708 16.3679 86.2804 16.3679C86.5645 16.3679 86.806 16.3295 87.0049 16.2528C87.2066 16.1761 87.3614 16.0696 87.4694 15.9332C87.5773 15.7969 87.6327 15.6406 87.6356 15.4645C87.6327 15.2997 87.5816 15.1591 87.4821 15.0426C87.3827 14.9233 87.2293 14.821 87.0219 14.7358C86.8174 14.6477 86.556 14.5668 86.2378 14.4929L85.3259 14.2798C84.5702 14.1065 83.975 13.8267 83.5404 13.4403C83.1057 13.0511 82.8898 12.5256 82.8927 11.8636C82.8898 11.3239 83.0347 10.8509 83.3273 10.4446C83.6199 10.0384 84.0248 9.72159 84.5418 9.49432C85.0589 9.26705 85.6483 9.15341 86.3103 9.15341C86.9864 9.15341 87.5731 9.26847 88.0702 9.49858C88.5702 9.72585 88.958 10.0455 89.2336 10.4574C89.5091 10.8693 89.6498 11.3466 89.6554 11.8892H87.6356Z" fill="#1A1A1A"/>
<path d="M25 12.8125C25 11.7125 24.3625 10.775 23.4437 10.3125C23.6312 9.93125 23.75 9.5125 23.75 9.0625C23.75 7.55625 22.5625 6.3375 21.075 6.2625C21.325 5.56875 21.3625 4.76875 20.8188 3.88125C20.5813 3.49375 20.2563 3.16875 19.8688 2.93125C18.9813 2.3875 18.1812 2.425 17.4875 2.675C17.4125 1.1875 16.1938 0 14.6875 0C14.15 0 13.65 0.15625 13.225 0.41875C13.1937 0.4375 13.1563 0.45625 13.125 0.46875C12.9312 0.575 12.7125 0.625 12.5 0.625C12.2875 0.625 12.0688 0.575 11.875 0.46875C11.8437 0.45625 11.8063 0.4375 11.775 0.41875C11.35 0.15625 10.85 0 10.3125 0C8.80625 0 7.5875 1.1875 7.5125 2.675C6.81875 2.425 6.01875 2.3875 5.13125 2.93125C4.74375 3.16875 4.41875 3.49375 4.18125 3.88125C3.6375 4.76875 3.675 5.56875 3.925 6.2625C2.4375 6.3375 1.25 7.55625 1.25 9.0625C1.25 9.5125 1.36875 9.93125 1.55625 10.3125C0.6375 10.775 0 11.7125 0 12.8125C0 13.7125 0.43125 14.5063 1.0875 15.0188C0.8 15.4625 0.625 15.9937 0.625 16.5625C0.625 17.5812 1.16875 18.4625 1.98125 18.9563C1.91875 19.1938 1.875 19.4313 1.875 19.6875C1.875 21.2438 3.13125 22.5 4.6875 22.5C4.89375 22.5 5.09375 22.475 5.2875 22.4312C5.88125 23.9375 7.35 25 9.0625 25C10.0563 25 10.9625 24.6437 11.6688 24.05C11.7313 23.9937 11.8 23.95 11.875 23.9125C12.0688 23.8 12.2813 23.75 12.5 23.75C12.7187 23.75 12.9312 23.8 13.125 23.9125C13.2 23.95 13.2687 23.9937 13.3312 24.05C14.0375 24.6437 14.9437 25 15.9375 25C17.65 25 19.1188 23.9375 19.7125 22.4312C19.9063 22.475 20.1062 22.5 20.3125 22.5C21.8688 22.5 23.125 21.2438 23.125 19.6875C23.125 19.4313 23.0813 19.1938 23.0188 18.9563C23.8313 18.4625 24.375 17.5812 24.375 16.5625C24.375 15.9937 24.2 15.4625 23.9125 15.0188C24.5687 14.5063 25 13.7125 25 12.8125Z" fill="#1E88E5"/>
<path d="M7.5 5H17.5V6.25H7.5V5ZM10 20.625H8.75V18.125H3.75V14.375H5V16.875H10V20.625Z" fill="#81D4FA"/>
<path d="M7.5 4.375C7.16848 4.375 6.85054 4.50669 6.61612 4.74111C6.3817 4.97553 6.25 5.29348 6.25 5.625C6.25 5.95652 6.3817 6.27446 6.61612 6.50888C6.85054 6.7433 7.16848 6.875 7.5 6.875C7.83152 6.875 8.14946 6.7433 8.38388 6.50888C8.6183 6.27446 8.75 5.95652 8.75 5.625C8.75 5.29348 8.6183 4.97553 8.38388 4.74111C8.14946 4.50669 7.83152 4.375 7.5 4.375V4.375ZM4.375 13.125C4.04348 13.125 3.72554 13.2567 3.49112 13.4911C3.2567 13.7255 3.125 14.0435 3.125 14.375C3.125 14.7065 3.2567 15.0245 3.49112 15.2589C3.72554 15.4933 4.04348 15.625 4.375 15.625C4.70652 15.625 5.02446 15.4933 5.25888 15.2589C5.4933 15.0245 5.625 14.7065 5.625 14.375C5.625 14.0435 5.4933 13.7255 5.25888 13.4911C5.02446 13.2567 4.70652 13.125 4.375 13.125ZM9.375 19.375C9.04348 19.375 8.72554 19.5067 8.49112 19.7411C8.2567 19.9755 8.125 20.2935 8.125 20.625C8.125 20.9565 8.2567 21.2745 8.49112 21.5089C8.72554 21.7433 9.04348 21.875 9.375 21.875C9.70652 21.875 10.0245 21.7433 10.2589 21.5089C10.4933 21.2745 10.625 20.9565 10.625 20.625C10.625 20.2935 10.4933 19.9755 10.2589 19.7411C10.0245 19.5067 9.70652 19.375 9.375 19.375Z" fill="#FFEE58"/>
<path d="M16.25 20.625H15V16.875H20V14.375H21.25V18.125H16.25V20.625Z" fill="#81D4FA"/>
<path d="M20.6251 13.125C20.2935 13.125 19.9756 13.2567 19.7412 13.4911C19.5068 13.7255 19.3751 14.0435 19.3751 14.375C19.3751 14.7065 19.5068 15.0245 19.7412 15.2589C19.9756 15.4933 20.2935 15.625 20.6251 15.625C20.9566 15.625 21.2745 15.4933 21.5089 15.2589C21.7434 15.0245 21.8751 14.7065 21.8751 14.375C21.8751 14.0435 21.7434 13.7255 21.5089 13.4911C21.2745 13.2567 20.9566 13.125 20.6251 13.125ZM15.6251 19.375C15.2935 19.375 14.9756 19.5067 14.7412 19.7411C14.5068 19.9755 14.3751 20.2935 14.3751 20.625C14.3751 20.9565 14.5068 21.2745 14.7412 21.5089C14.9756 21.7433 15.2935 21.875 15.6251 21.875C15.9566 21.875 16.2745 21.7433 16.5089 21.5089C16.7434 21.2745 16.8751 20.9565 16.8751 20.625C16.8751 20.2935 16.7434 19.9755 16.5089 19.7411C16.2745 19.5067 15.9566 19.375 15.6251 19.375ZM16.8751 4.375C16.5435 4.375 16.2256 4.50669 15.9912 4.74111C15.7568 4.97553 15.6251 5.29348 15.6251 5.625C15.6251 5.95652 15.7568 6.27446 15.9912 6.50888C16.2256 6.7433 16.5435 6.875 16.8751 6.875C17.2066 6.875 17.5245 6.7433 17.7589 6.50888C17.9934 6.27446 18.1251 5.95652 18.1251 5.625C18.1251 5.29348 17.9934 4.97553 17.7589 4.74111C17.5245 4.50669 17.2066 4.375 16.8751 4.375Z" fill="#FFEE58"/>
<path d="M13.125 0.46875V23.9125C12.9312 23.8 12.7187 23.75 12.5 23.75C12.2813 23.75 12.0688 23.8 11.875 23.9125V0.46875C12.0688 0.575 12.2875 0.625 12.5 0.625C12.7125 0.625 12.9312 0.575 13.125 0.46875Z" fill="#1976D2"/>
<path d="M10 13.75H8.75V10.625H5.625V9.375H10V13.75Z" fill="#81D4FA"/>
<path d="M9.37494 12.5C9.04342 12.5 8.72548 12.6317 8.49106 12.8661C8.25664 13.1005 8.12494 13.4185 8.12494 13.75C8.12494 14.0815 8.25664 14.3995 8.49106 14.6339C8.72548 14.8683 9.04342 15 9.37494 15C9.70646 15 10.0244 14.8683 10.2588 14.6339C10.4932 14.3995 10.6249 14.0815 10.6249 13.75C10.6249 13.4185 10.4932 13.1005 10.2588 12.8661C10.0244 12.6317 9.70646 12.5 9.37494 12.5ZM5.62494 8.75C5.29342 8.75 4.97548 8.8817 4.74106 9.11612C4.50664 9.35054 4.37494 9.66848 4.37494 10C4.37494 10.3315 4.50664 10.6495 4.74106 10.8839C4.97548 11.1183 5.29342 11.25 5.62494 11.25C5.95646 11.25 6.2744 11.1183 6.50882 10.8839C6.74324 10.6495 6.87494 10.3315 6.87494 10C6.87494 9.66848 6.74324 9.35054 6.50882 9.11612C6.2744 8.8817 5.95646 8.75 5.62494 8.75Z" fill="#FFEE58"/>
<path d="M16.25 13.75H15V9.375H19.375V10.625H16.25V13.75Z" fill="#81D4FA"/>
<path d="M15.6251 12.5C15.2935 12.5 14.9756 12.6317 14.7412 12.8661C14.5068 13.1005 14.3751 13.4185 14.3751 13.75C14.3751 14.0815 14.5068 14.3995 14.7412 14.6339C14.9756 14.8683 15.2935 15 15.6251 15C15.9566 15 16.2745 14.8683 16.5089 14.6339C16.7434 14.3995 16.8751 14.0815 16.8751 13.75C16.8751 13.4185 16.7434 13.1005 16.5089 12.8661C16.2745 12.6317 15.9566 12.5 15.6251 12.5ZM19.3751 8.75C19.0435 8.75 18.7256 8.8817 18.4912 9.11612C18.2568 9.35054 18.1251 9.66848 18.1251 10C18.1251 10.3315 18.2568 10.6495 18.4912 10.8839C18.7256 11.1183 19.0435 11.25 19.3751 11.25C19.7066 11.25 20.0245 11.1183 20.2589 10.8839C20.4934 10.6495 20.6251 10.3315 20.6251 10C20.6251 9.66848 20.4934 9.35054 20.2589 9.11612C20.0245 8.8817 19.7066 8.75 19.3751 8.75Z" fill="#FFEE58"/>
</svg>
